<?xml version="1.0" encoding="utf-8"?>
<!-- Svg Vector Icons : http://www.onlinewebfonts.com/icon -->
<!DOCTYPE svg PUBLIC "-//W3C//DTD SVG 1.1//EN" "http://www.w3.org/Graphics/SVG/1.1/DTD/svg11.dtd">
<svg version="1.1" xmlns="http://www.w3.org/2000/svg" xmlns:xlink="http://www.w3.org/1999/xlink" x="0px" y="0px" viewBox="0 0 1000 1000" enable-background="new 0 0 1000 1000" xml:space="preserve">
<metadata> Svg Vector Icons : http://www.onlinewebfonts.com/icon </metadata>
<g><g><path d="M109,618.7c60.8,80.6,139.8,145.3,222,203.8c0,0,98,67.9,143,99.5c16.6,11.1,37.9,11.1,53.7,0c45-31.6,142.2-99.5,142.2-99.5C752,764,829.4,700,891,618.7c52.1-69.5,90.8-151.7,97.9-238.6c12.6-158-89.3-309.6-258.3-309.6c-98.7,0-185.6,53.7-229.9,133.5C455,123.4,368.9,69.7,270.1,69.7C101.9,69.7-1.6,221.4,11,379.3C18.2,466.2,56.1,549.2,109,618.7z"/></g><g></g><g></g><g></g><g></g><g></g><g></g><g></g><g></g><g></g><g></g><g></g><g></g><g></g><g></g><g></g></g>
</svg>